<?xml version="1.0" encoding="UTF-8"?>
<mxfile host="app.diagrams.net" modified="2024-01-01T00:00:00.000Z" agent="draw.io" version="22.1.0">
  <diagram name="AWS-Architecture" id="aws-simple">
    <mxGraphModel dx="1200" dy="800" grid="1" gridSize="10" guides="1" tooltips="1" connect="1" arrows="1" fold="1" page="1" pageScale="1" pageWidth="827" pageHeight="1169" math="0" shadow="0">
      <root>
        <mxCell id="0" />
        <mxCell id="1" parent="0" />
        
        <!-- Title -->
        <mxCell id="title" value="AWS Scalable Web Application - SAA Architecture" style="text;fontSize=16;fontStyle=1;align=center;" vertex="1" parent="1">
          <mxGeometry x="200" y="20" width="400" height="30" as="geometry" />
        </mxCell>
        
        <!-- Row 1: Users -->
        <mxCell id="users" value="Internet Users" style="sketch=0;outlineConnect=0;fontColor=#232F3E;gradientColor=none;fillColor=#232F3D;strokeColor=none;dashed=0;verticalLabelPosition=bottom;verticalAlign=top;align=center;html=1;fontSize=12;fontStyle=0;aspect=fixed;shape=mxgraph.aws4.users;" vertex="1" parent="1">
          <mxGeometry x="374" y="70" width="78" height="78" as="geometry" />
        </mxCell>
        
        <!-- Row 2: Route 53 -->
        <mxCell id="route53" value="Route 53" style="sketch=0;outlineConnect=0;fontColor=#232F3E;gradientColor=#945DF2;gradientDirection=north;fillColor=#5A30B5;strokeColor=#ffffff;dashed=0;verticalLabelPosition=bottom;verticalAlign=top;align=center;html=1;fontSize=12;fontStyle=0;aspect=fixed;shape=mxgraph.aws4.resourceIcon;resIcon=mxgraph.aws4.route_53;" vertex="1" parent="1">
          <mxGeometry x="374" y="180" width="78" height="78" as="geometry" />
        </mxCell>
        
        <!-- Row 3: AWS Region -->
        <mxCell id="region" value="AWS Region: us-east-1" style="fillColor=none;strokeColor=#147EBA;dashed=1;verticalAlign=top;fontStyle=1;fontColor=#147EBA;fontSize=14;" vertex="1" parent="1">
          <mxGeometry x="50" y="300" width="750" height="600" as="geometry" />
        </mxCell>
        
        <!-- Row 4: Internet Gateway -->
        <mxCell id="igw" value="Internet Gateway" style="sketch=0;outlineConnect=0;fontColor=#232F3E;gradientColor=none;fillColor=#8C4FFF;strokeColor=none;dashed=0;verticalLabelPosition=bottom;verticalAlign=top;align=center;html=1;fontSize=12;fontStyle=0;aspect=fixed;shape=mxgraph.aws4.internet_gateway;" vertex="1" parent="1">
          <mxGeometry x="374" y="330" width="78" height="78" as="geometry" />
        </mxCell>
        
        <!-- Row 5: ALB -->
        <mxCell id="alb" value="Application Load Balancer" style="sketch=0;outlineConnect=0;fontColor=#232F3E;gradientColor=none;fillColor=#8C4FFF;strokeColor=none;dashed=0;verticalLabelPosition=bottom;verticalAlign=top;align=center;html=1;fontSize=12;fontStyle=0;aspect=fixed;shape=mxgraph.aws4.application_load_balancer;" vertex="1" parent="1">
          <mxGeometry x="374" y="450" width="78" height="78" as="geometry" />
        </mxCell>
        
        <!-- Row 6: VPC -->
        <mxCell id="vpc" value="VPC: 10.0.0.0/16" style="fillColor=none;strokeColor=#248814;dashed=0;verticalAlign=top;fontStyle=1;fontColor=#248814;fontSize=12;" vertex="1" parent="1">
          <mxGeometry x="100" y="570" width="650" height="280" as="geometry" />
        </mxCell>
        
        <!-- Row 7: Availability Zones -->
        <mxCell id="az1a" value="AZ: us-east-1a" style="fillColor=none;strokeColor=#FF6600;dashed=1;verticalAlign=top;fontStyle=1;fontColor=#FF6600;" vertex="1" parent="1">
          <mxGeometry x="120" y="600" width="280" height="220" as="geometry" />
        </mxCell>
        
        <mxCell id="az1b" value="AZ: us-east-1b" style="fillColor=none;strokeColor=#FF6600;dashed=1;verticalAlign=top;fontStyle=1;fontColor=#FF6600;" vertex="1" parent="1">
          <mxGeometry x="450" y="600" width="280" height="220" as="geometry" />
        </mxCell>
        
        <!-- Row 8: Subnets -->
        <mxCell id="pubsub1a" value="Public: 10.0.1.0/24" style="fillColor=#E6F3FF;strokeColor=#1BA1E2;fontColor=#1BA1E2;" vertex="1" parent="1">
          <mxGeometry x="140" y="630" width="120" height="60" as="geometry" />
        </mxCell>
        
        <mxCell id="privsub1a" value="Private: 10.0.3.0/24" style="fillColor=#FFE6E6;strokeColor=#E3B505;fontColor=#E3B505;" vertex="1" parent="1">
          <mxGeometry x="140" y="720" width="120" height="80" as="geometry" />
        </mxCell>
        
        <mxCell id="pubsub1b" value="Public: 10.0.2.0/24" style="fillColor=#E6F3FF;strokeColor=#1BA1E2;fontColor=#1BA1E2;" vertex="1" parent="1">
          <mxGeometry x="470" y="630" width="120" height="60" as="geometry" />
        </mxCell>
        
        <mxCell id="privsub1b" value="Private: 10.0.4.0/24" style="fillColor=#FFE6E6;strokeColor=#E3B505;fontColor=#E3B505;" vertex="1" parent="1">
          <mxGeometry x="470" y="720" width="120" height="80" as="geometry" />
        </mxCell>
        
        <!-- Row 9: NAT Gateways -->
        <mxCell id="nat1a" value="NAT Gateway" style="sketch=0;outlineConnect=0;fontColor=#232F3E;gradientColor=none;fillColor=#8C4FFF;strokeColor=none;dashed=0;verticalLabelPosition=bottom;verticalAlign=top;align=center;html=1;fontSize=10;fontStyle=0;aspect=fixed;shape=mxgraph.aws4.nat_gateway;" vertex="1" parent="1">
          <mxGeometry x="280" y="640" width="40" height="40" as="geometry" />
        </mxCell>
        
        <mxCell id="nat1b" value="NAT Gateway" style="sketch=0;outlineConnect=0;fontColor=#232F3E;gradientColor=none;fillColor=#8C4FFF;strokeColor=none;dashed=0;verticalLabelPosition=bottom;verticalAlign=top;align=center;html=1;fontSize=10;fontStyle=0;aspect=fixed;shape=mxgraph.aws4.nat_gateway;" vertex="1" parent="1">
          <mxGeometry x="610" y="640" width="40" height="40" as="geometry" />
        </mxCell>
        
        <!-- Row 10: EC2 Instances -->
        <mxCell id="ec2_1a" value="Web Server 1a" style="sketch=0;outlineConnect=0;fontColor=#232F3E;gradientColor=#F78E04;gradientDirection=north;fillColor=#D05C17;strokeColor=#ffffff;dashed=0;verticalLabelPosition=bottom;verticalAlign=top;align=center;html=1;fontSize=10;fontStyle=0;aspect=fixed;shape=mxgraph.aws4.resourceIcon;resIcon=mxgraph.aws4.ec2;" vertex="1" parent="1">
          <mxGeometry x="280" y="740" width="50" height="50" as="geometry" />
        </mxCell>
        
        <mxCell id="ec2_1b" value="Web Server 1b" style="sketch=0;outlineConnect=0;fontColor=#232F3E;gradientColor=#F78E04;gradientDirection=north;fillColor=#D05C17;strokeColor=#ffffff;dashed=0;verticalLabelPosition=bottom;verticalAlign=top;align=center;html=1;fontSize=10;fontStyle=0;aspect=fixed;shape=mxgraph.aws4.resourceIcon;resIcon=mxgraph.aws4.ec2;" vertex="1" parent="1">
          <mxGeometry x="610" y="740" width="50" height="50" as="geometry" />
        </mxCell>
        
        <!-- Row 11: Auto Scaling -->
        <mxCell id="asg" value="Auto Scaling Group" style="sketch=0;outlineConnect=0;fontColor=#232F3E;gradientColor=#F78E04;gradientDirection=north;fillColor=#D05C17;strokeColor=#ffffff;dashed=0;verticalLabelPosition=bottom;verticalAlign=top;align=center;html=1;fontSize=12;fontStyle=0;aspect=fixed;shape=mxgraph.aws4.resourceIcon;resIcon=mxgraph.aws4.auto_scaling2;" vertex="1" parent="1">
          <mxGeometry x="374" y="880" width="78" height="78" as="geometry" />
        </mxCell>
        
        <!-- Row 12: CloudWatch -->
        <mxCell id="cloudwatch" value="CloudWatch" style="sketch=0;outlineConnect=0;fontColor=#232F3E;gradientColor=#F34482;gradientDirection=north;fillColor=#BC1356;strokeColor=#ffffff;dashed=0;verticalLabelPosition=bottom;verticalAlign=top;align=center;html=1;fontSize=12;fontStyle=0;aspect=fixed;shape=mxgraph.aws4.resourceIcon;resIcon=mxgraph.aws4.cloudwatch_2;" vertex="1" parent="1">
          <mxGeometry x="374" y="990" width="78" height="78" as="geometry" />
        </mxCell>
        
        <!-- Row 13: SNS -->
        <mxCell id="sns" value="SNS" style="sketch=0;outlineConnect=0;fontColor=#232F3E;gradientColor=#FF4F8B;gradientDirection=north;fillColor=#BC1356;strokeColor=#ffffff;dashed=0;verticalLabelPosition=bottom;verticalAlign=top;align=center;html=1;fontSize=12;fontStyle=0;aspect=fixed;shape=mxgraph.aws4.resourceIcon;resIcon=mxgraph.aws4.sns;" vertex="1" parent="1">
          <mxGeometry x="274" y="1100" width="78" height="78" as="geometry" />
        </mxCell>
        
        <!-- Row 14: IAM -->
        <mxCell id="iam" value="IAM" style="sketch=0;outlineConnect=0;fontColor=#232F3E;gradientColor=#F54749;gradientDirection=north;fillColor=#C7131F;strokeColor=#ffffff;dashed=0;verticalLabelPosition=bottom;verticalAlign=top;align=center;html=1;fontSize=12;fontStyle=0;aspect=fixed;shape=mxgraph.aws4.resourceIcon;resIcon=mxgraph.aws4.identity_and_access_management;" vertex="1" parent="1">
          <mxGeometry x="474" y="1100" width="78" height="78" as="geometry" />
        </mxCell>
        
        <!-- Connections -->
        <mxCell id="arrow1" style="edgeStyle=orthogonalEdgeStyle;rounded=0;orthogonalLoop=1;jettySize=auto;html=1;strokeWidth=3;strokeColor=#FF6600;" edge="1" parent="1" source="users" target="route53">
          <mxGeometry relative="1" as="geometry" />
        </mxCell>
        
        <mxCell id="arrow2" style="edgeStyle=orthogonalEdgeStyle;rounded=0;orthogonalLoop=1;jettySize=auto;html=1;strokeWidth=3;strokeColor=#FF6600;" edge="1" parent="1" source="route53" target="igw">
          <mxGeometry relative="1" as="geometry" />
        </mxCell>
        
        <mxCell id="arrow3" style="edgeStyle=orthogonalEdgeStyle;rounded=0;orthogonalLoop=1;jettySize=auto;html=1;strokeWidth=3;strokeColor=#FF6600;" edge="1" parent="1" source="igw" target="alb">
          <mxGeometry relative="1" as="geometry" />
        </mxCell>
        
        <mxCell id="arrow4" style="edgeStyle=orthogonalEdgeStyle;rounded=0;orthogonalLoop=1;jettySize=auto;html=1;strokeWidth=3;strokeColor=#0066CC;" edge="1" parent="1" source="alb" target="ec2_1a">
          <mxGeometry relative="1" as="geometry" />
        </mxCell>
        
        <mxCell id="arrow5" style="edgeStyle=orthogonalEdgeStyle;rounded=0;orthogonalLoop=1;jettySize=auto;html=1;strokeWidth=3;strokeColor=#0066CC;" edge="1" parent="1" source="alb" target="ec2_1b">
          <mxGeometry relative="1" as="geometry" />
        </mxCell>
        
        <mxCell id="arrow6" style="edgeStyle=orthogonalEdgeStyle;rounded=0;orthogonalLoop=1;jettySize=auto;html=1;strokeWidth=3;strokeColor=#00CC66;" edge="1" parent="1" source="ec2_1a" target="asg">
          <mxGeometry relative="1" as="geometry" />
        </mxCell>
        
        <mxCell id="arrow7" style="edgeStyle=orthogonalEdgeStyle;rounded=0;orthogonalLoop=1;jettySize=auto;html=1;strokeWidth=3;strokeColor=#00CC66;" edge="1" parent="1" source="ec2_1b" target="asg">
          <mxGeometry relative="1" as="geometry" />
        </mxCell>
        
        <mxCell id="arrow8" style="edgeStyle=orthogonalEdgeStyle;rounded=0;orthogonalLoop=1;jettySize=auto;html=1;strokeWidth=3;strokeColor=#9900CC;" edge="1" parent="1" source="asg" target="cloudwatch">
          <mxGeometry relative="1" as="geometry" />
        </mxCell>
        
        <mxCell id="arrow9" style="edgeStyle=orthogonalEdgeStyle;rounded=0;orthogonalLoop=1;jettySize=auto;html=1;strokeWidth=3;strokeColor=#9900CC;" edge="1" parent="1" source="cloudwatch" target="sns">
          <mxGeometry relative="1" as="geometry" />
        </mxCell>
        
        <mxCell id="arrow10" style="edgeStyle=orthogonalEdgeStyle;rounded=0;orthogonalLoop=1;jettySize=auto;html=1;strokeWidth=3;strokeColor=#CC0000;" edge="1" parent="1" source="sns" target="iam">
          <mxGeometry relative="1" as="geometry" />
        </mxCell>
        
      </root>
    </mxGraphModel>
  </diagram>
</mxfile>